M48
;DRILL file for 74181 ALU tester
METRIC,TZ
FMAT,2
T01C0.800
T02C0.900
T03C1.000
T04C2.200
%
T01
X22.000Y14.190
X22.000Y21.810
X24.540Y14.190
X24.540Y21.810
X27.080Y14.190
X27.080Y21.810
X29.620Y14.190
X29.620Y21.810
X42.000Y14.190
X42.000Y21.810
X44.540Y14.190
X44.540Y21.810
X47.080Y14.190
X47.080Y21.810
X49.620Y14.190
X49.620Y21.810
T02
X62.000Y27.500
X62.000Y30.000
X62.000Y32.500
T03
X6.000Y8.000
X6.000Y8.000
X6.000Y10.540
X6.000Y10.540
X6.000Y13.080
X6.000Y13.080
X6.000Y15.620
X6.000Y15.620
X6.000Y18.160
X6.000Y18.160
X6.000Y20.700
X6.000Y20.700
X6.000Y23.240
X6.000Y23.240
X6.000Y25.780
X6.000Y25.780
X6.000Y28.320
X6.000Y28.320
X6.000Y30.860
X6.000Y30.860
X6.000Y33.400
X6.000Y33.400
X6.000Y35.940
X6.000Y35.940
X6.000Y38.480
X6.000Y38.480
X6.000Y41.020
X6.000Y41.020
X10.000Y8.000
X10.000Y8.000
X10.000Y10.540
X10.000Y10.540
X10.000Y13.080
X10.000Y13.080
X10.000Y15.620
X10.000Y15.620
X10.000Y18.160
X10.000Y18.160
X10.000Y20.700
X10.000Y20.700
X10.000Y23.240
X10.000Y23.240
X10.000Y25.780
X10.000Y25.780
X10.000Y28.320
X10.000Y28.320
X10.000Y30.860
X10.000Y30.860
X10.000Y33.400
X10.000Y33.400
X10.000Y35.940
X10.000Y35.940
X10.000Y38.480
X10.000Y38.480
X10.000Y41.020
X10.000Y41.020
T04
X3.000Y3.000
X67.000Y3.000
X3.000Y47.000
X67.000Y47.000
M30
