M48
;DRILL 74181 ALU tester
METRIC,TZ
FMAT,2
T01C0.800
T02C0.900
T03C1.000
T04C2.200
%
T01
X20.190Y12.190
X20.190Y19.810
X22.730Y12.190
X22.730Y19.810
X25.270Y12.190
X25.270Y19.810
X27.810Y12.190
X27.810Y19.810
X38.190Y12.190
X38.190Y19.810
X40.730Y12.190
X40.730Y19.810
X43.270Y12.190
X43.270Y19.810
X45.810Y12.190
X45.810Y19.810
T02
X57.460Y12.000
X60.000Y12.000
X62.540Y12.000
X57.460Y20.000
X60.000Y20.000
X62.540Y20.000
X57.460Y28.000
X60.000Y28.000
X62.540Y28.000
X62.000Y37.500
X62.000Y40.000
X62.000Y42.500
T03
X5.500Y6.500
X5.500Y9.040
X5.500Y11.580
X5.500Y14.120
X5.500Y16.660
X5.500Y19.200
X5.500Y21.740
X5.500Y24.280
X5.500Y26.820
X5.500Y29.360
X5.500Y31.900
X5.500Y34.440
X5.500Y36.980
X5.500Y39.520
X9.500Y6.500
X9.500Y9.040
X9.500Y11.580
X9.500Y14.120
X9.500Y16.660
X9.500Y19.200
X9.500Y21.740
X9.500Y24.280
X9.500Y26.820
X9.500Y29.360
X9.500Y31.900
X9.500Y34.440
X9.500Y36.980
X9.500Y39.520
T04
X3.000Y3.000
X67.000Y3.000
X3.000Y47.000
X67.000Y47.000
M30
