%FSLAX46Y46*%
%MOMM*%
G01*
%LPD*%
%ADD10C,3.4000*%
D10*
X3000000Y3000000D03*
D10*
X67000000Y3000000D03*
D10*
X3000000Y47000000D03*
D10*
X67000000Y47000000D03*
%ADD11C,1.9000*%
D11*
X5500000Y6500000D03*
D11*
X5500000Y9040000D03*
D11*
X5500000Y11580000D03*
D11*
X5500000Y14120000D03*
D11*
X5500000Y16660000D03*
D11*
X5500000Y19200000D03*
D11*
X5500000Y21740000D03*
D11*
X5500000Y24280000D03*
D11*
X5500000Y26820000D03*
D11*
X5500000Y29360000D03*
D11*
X5500000Y31900000D03*
D11*
X5500000Y34440000D03*
D11*
X5500000Y36980000D03*
D11*
X5500000Y39520000D03*
D11*
X9500000Y6500000D03*
D11*
X9500000Y9040000D03*
D11*
X9500000Y11580000D03*
D11*
X9500000Y14120000D03*
D11*
X9500000Y16660000D03*
D11*
X9500000Y19200000D03*
D11*
X9500000Y21740000D03*
D11*
X9500000Y24280000D03*
D11*
X9500000Y26820000D03*
D11*
X9500000Y29360000D03*
D11*
X9500000Y31900000D03*
D11*
X9500000Y34440000D03*
D11*
X9500000Y36980000D03*
D11*
X9500000Y39520000D03*
%ADD12C,1.8000*%
D12*
X20190000Y12190000D03*
D12*
X20190000Y19810000D03*
D12*
X22730000Y12190000D03*
D12*
X22730000Y19810000D03*
D12*
X25270000Y12190000D03*
D12*
X25270000Y19810000D03*
D12*
X27810000Y12190000D03*
D12*
X27810000Y19810000D03*
D12*
X38190000Y12190000D03*
D12*
X38190000Y19810000D03*
D12*
X40730000Y12190000D03*
D12*
X40730000Y19810000D03*
D12*
X43270000Y12190000D03*
D12*
X43270000Y19810000D03*
D12*
X45810000Y12190000D03*
D12*
X45810000Y19810000D03*
D12*
X57460000Y12000000D03*
D12*
X60000000Y12000000D03*
D12*
X62540000Y12000000D03*
D12*
X57460000Y20000000D03*
D12*
X60000000Y20000000D03*
D12*
X62540000Y20000000D03*
D12*
X57460000Y28000000D03*
D12*
X60000000Y28000000D03*
D12*
X62540000Y28000000D03*
D12*
X62000000Y37500000D03*
D12*
X62000000Y40000000D03*
D12*
X62000000Y42500000D03*
M02*
