%FSLAX46Y46*%
%MOMM*%
G01*
%LPD*%
%ADD10C,3.2000*%
D10*
X3000000Y3000000D03*
D10*
X67000000Y3000000D03*
D10*
X3000000Y47000000D03*
D10*
X67000000Y47000000D03*
%ADD11C,1.7000*%
D11*
X5500000Y6500000D03*
D11*
X5500000Y9040000D03*
D11*
X5500000Y11580000D03*
D11*
X5500000Y14120000D03*
D11*
X5500000Y16660000D03*
D11*
X5500000Y19200000D03*
D11*
X5500000Y21740000D03*
D11*
X5500000Y24280000D03*
D11*
X5500000Y26820000D03*
D11*
X5500000Y29360000D03*
D11*
X5500000Y31900000D03*
D11*
X5500000Y34440000D03*
D11*
X5500000Y36980000D03*
D11*
X5500000Y39520000D03*
D11*
X9500000Y6500000D03*
D11*
X9500000Y9040000D03*
D11*
X9500000Y11580000D03*
D11*
X9500000Y14120000D03*
D11*
X9500000Y16660000D03*
D11*
X9500000Y19200000D03*
D11*
X9500000Y21740000D03*
D11*
X9500000Y24280000D03*
D11*
X9500000Y26820000D03*
D11*
X9500000Y29360000D03*
D11*
X9500000Y31900000D03*
D11*
X9500000Y34440000D03*
D11*
X9500000Y36980000D03*
D11*
X9500000Y39520000D03*
%ADD12C,1.6000*%
D12*
X20190000Y12190000D03*
D12*
X20190000Y19810000D03*
D12*
X22730000Y12190000D03*
D12*
X22730000Y19810000D03*
D12*
X25270000Y12190000D03*
D12*
X25270000Y19810000D03*
D12*
X27810000Y12190000D03*
D12*
X27810000Y19810000D03*
D12*
X38190000Y12190000D03*
D12*
X38190000Y19810000D03*
D12*
X40730000Y12190000D03*
D12*
X40730000Y19810000D03*
D12*
X43270000Y12190000D03*
D12*
X43270000Y19810000D03*
D12*
X45810000Y12190000D03*
D12*
X45810000Y19810000D03*
D12*
X57460000Y12000000D03*
D12*
X60000000Y12000000D03*
D12*
X62540000Y12000000D03*
D12*
X57460000Y20000000D03*
D12*
X60000000Y20000000D03*
D12*
X62540000Y20000000D03*
D12*
X57460000Y28000000D03*
D12*
X60000000Y28000000D03*
D12*
X62540000Y28000000D03*
D12*
X62000000Y37500000D03*
D12*
X62000000Y40000000D03*
D12*
X62000000Y42500000D03*
%ADD13C,0.2000*%
D13*
X12000000Y5000000D02*
X12000000Y47000000D01*
D13*
X16000000Y5000000D02*
X16000000Y47000000D01*
D13*
X20000000Y5000000D02*
X20000000Y47000000D01*
D13*
X24000000Y5000000D02*
X24000000Y47000000D01*
D13*
X28000000Y5000000D02*
X28000000Y47000000D01*
D13*
X32000000Y5000000D02*
X32000000Y47000000D01*
D13*
X36000000Y5000000D02*
X36000000Y47000000D01*
D13*
X40000000Y5000000D02*
X40000000Y47000000D01*
D13*
X44000000Y5000000D02*
X44000000Y47000000D01*
D13*
X48000000Y5000000D02*
X48000000Y47000000D01*
D13*
X52000000Y5000000D02*
X52000000Y47000000D01*
D13*
X56000000Y5000000D02*
X56000000Y47000000D01*
D13*
X60000000Y5000000D02*
X60000000Y47000000D01*
D13*
X64000000Y5000000D02*
X64000000Y47000000D01*
D13*
X12000000Y5000000D02*
X68000000Y5000000D01*
D13*
X12000000Y9000000D02*
X68000000Y9000000D01*
D13*
X12000000Y13000000D02*
X68000000Y13000000D01*
D13*
X12000000Y17000000D02*
X68000000Y17000000D01*
D13*
X12000000Y21000000D02*
X68000000Y21000000D01*
D13*
X12000000Y25000000D02*
X68000000Y25000000D01*
D13*
X12000000Y29000000D02*
X68000000Y29000000D01*
D13*
X12000000Y33000000D02*
X68000000Y33000000D01*
D13*
X12000000Y37000000D02*
X68000000Y37000000D01*
D13*
X12000000Y41000000D02*
X68000000Y41000000D01*
D13*
X12000000Y45000000D02*
X68000000Y45000000D01*
M02*
