%FSLAX46Y46*%
%MOMM*%
G01*
%LPD*%
%ADD10C,3.4000*%
D10*
X3000000Y3000000D03*
D10*
X67000000Y3000000D03*
D10*
X3000000Y47000000D03*
D10*
X67000000Y47000000D03*
%ADD11C,1.9000*%
D11*
X5500000Y6500000D03*
D11*
X5500000Y9040000D03*
D11*
X5500000Y11580000D03*
D11*
X5500000Y14120000D03*
D11*
X5500000Y16660000D03*
D11*
X5500000Y19200000D03*
D11*
X5500000Y21740000D03*
D11*
X5500000Y24280000D03*
D11*
X5500000Y26820000D03*
D11*
X5500000Y29360000D03*
D11*
X5500000Y31900000D03*
D11*
X5500000Y34440000D03*
D11*
X5500000Y36980000D03*
D11*
X5500000Y39520000D03*
D11*
X9500000Y6500000D03*
D11*
X9500000Y9040000D03*
D11*
X9500000Y11580000D03*
D11*
X9500000Y14120000D03*
D11*
X9500000Y16660000D03*
D11*
X9500000Y19200000D03*
D11*
X9500000Y21740000D03*
D11*
X9500000Y24280000D03*
D11*
X9500000Y26820000D03*
D11*
X9500000Y29360000D03*
D11*
X9500000Y31900000D03*
D11*
X9500000Y34440000D03*
D11*
X9500000Y36980000D03*
D11*
X9500000Y39520000D03*
%ADD12R,0.7000X1.6000*%
D12*
X25850000Y34095000D03*
D12*
X30150000Y34095000D03*
D12*
X25850000Y35365000D03*
D12*
X30150000Y35365000D03*
D12*
X25850000Y36635000D03*
D12*
X30150000Y36635000D03*
D12*
X25850000Y37905000D03*
D12*
X30150000Y37905000D03*
D12*
X45800000Y31555000D03*
D12*
X50200000Y31555000D03*
D12*
X45800000Y32825000D03*
D12*
X50200000Y32825000D03*
D12*
X45800000Y34095000D03*
D12*
X50200000Y34095000D03*
D12*
X45800000Y35365000D03*
D12*
X50200000Y35365000D03*
D12*
X45800000Y36635000D03*
D12*
X50200000Y36635000D03*
D12*
X45800000Y37905000D03*
D12*
X50200000Y37905000D03*
D12*
X45800000Y39175000D03*
D12*
X50200000Y39175000D03*
D12*
X45800000Y40445000D03*
D12*
X50200000Y40445000D03*
%ADD13C,1.8000*%
D13*
X20190000Y12190000D03*
D13*
X20190000Y19810000D03*
D13*
X22730000Y12190000D03*
D13*
X22730000Y19810000D03*
D13*
X25270000Y12190000D03*
D13*
X25270000Y19810000D03*
D13*
X27810000Y12190000D03*
D13*
X27810000Y19810000D03*
D13*
X38190000Y12190000D03*
D13*
X38190000Y19810000D03*
D13*
X40730000Y12190000D03*
D13*
X40730000Y19810000D03*
D13*
X43270000Y12190000D03*
D13*
X43270000Y19810000D03*
D13*
X45810000Y12190000D03*
D13*
X45810000Y19810000D03*
D13*
X57460000Y12000000D03*
D13*
X60000000Y12000000D03*
D13*
X62540000Y12000000D03*
D13*
X57460000Y20000000D03*
D13*
X60000000Y20000000D03*
D13*
X62540000Y20000000D03*
D13*
X57460000Y28000000D03*
D13*
X60000000Y28000000D03*
D13*
X62540000Y28000000D03*
D13*
X62000000Y37500000D03*
D13*
X62000000Y40000000D03*
D13*
X62000000Y42500000D03*
%ADD14R,1.1000X1.1000*%
D14*
X19150000Y46000000D03*
D14*
X20850000Y46000000D03*
D14*
X27650000Y46000000D03*
D14*
X29350000Y46000000D03*
D14*
X36150000Y46000000D03*
D14*
X37850000Y46000000D03*
D14*
X44650000Y46000000D03*
D14*
X46350000Y46000000D03*
D14*
X53150000Y46000000D03*
D14*
X54850000Y46000000D03*
%ADD15R,0.9000X1.0000*%
D15*
X19200000Y42500000D03*
D15*
X20800000Y42500000D03*
D15*
X27700000Y42500000D03*
D15*
X29300000Y42500000D03*
D15*
X36200000Y42500000D03*
D15*
X37800000Y42500000D03*
D15*
X44700000Y42500000D03*
D15*
X46300000Y42500000D03*
D15*
X53200000Y42500000D03*
D15*
X54800000Y42500000D03*
%ADD16R,1.3000X1.1000*%
D16*
X21000000Y36000000D03*
D16*
X23000000Y36000000D03*
D15*
X21200000Y40000000D03*
D15*
X22800000Y40000000D03*
D15*
X27200000Y30000000D03*
D15*
X28800000Y30000000D03*
D15*
X47200000Y30000000D03*
D15*
X48800000Y30000000D03*
D16*
X13000000Y42000000D03*
D16*
X15000000Y42000000D03*
D15*
X33200000Y42000000D03*
D15*
X34800000Y42000000D03*
D15*
X37200000Y42000000D03*
D15*
X38800000Y42000000D03*
M02*
